<?xml version="1.0" encoding="utf-8"?><!-- Uploaded to: SVG Repo, www.svgrepo.com, Generator: SVG Repo Mixer Tools -->
<svg width="800px" height="800px" viewBox="0 0 64 64" xmlns="http://www.w3.org/2000/svg" xmlns:xlink="http://www.w3.org/1999/xlink" aria-hidden="true" role="img" class="iconify iconify--emojione-monotone" preserveAspectRatio="xMidYMid meet"><path d="M33.543 22.531h-5.464v8.543h5.464c1.384 0 2.46-.348 3.228-1.043s1.151-1.797 1.151-3.307s-.384-2.586-1.151-3.229s-1.844-.964-3.228-.964" fill="#000000"></path><path d="M31.999 2c-16.568 0-30 13.432-30 30s13.432 30 30 30C48.568 62 62 48.568 62 32S48.568 2 31.999 2m9.398 31.949c-1.699 1.418-4.125 2.125-7.277 2.125h-6.041v10.434h-6.023V17.492h12.458c2.872 0 5.162.748 6.87 2.244c1.707 1.496 2.562 3.813 2.562 6.949c-.001 3.424-.85 5.846-2.549 7.264" fill="#000000"></path></svg>